<svg width="18" height="16" viewBox="0 0 18 16" fill="none" xmlns="http://www.w3.org/2000/svg">
<mask id="path-1-inside-1_189_120" fill="white">
<path d="M16 15C16 12.1204 15.1711 9.3017 13.6124 6.88047C12.0537 4.45924 9.831 2.53784 7.20976 1.34574L1 15H16Z"/>
</mask>
<path d="M16 15C16 12.1204 15.1711 9.3017 13.6124 6.88047C12.0537 4.45924 9.831 2.53784 7.20976 1.34574L1 15H16Z" stroke="#A3A3A3" stroke-width="2" mask="url(#path-1-inside-1_189_120)"/>
<mask id="path-2-inside-2_189_120" fill="white">
<path d="M16 15C16 12.7698 15.5027 10.5676 14.5443 8.55387C13.5859 6.5401 12.1905 4.76538 10.4597 3.35892L1 15H16Z"/>
</mask>
<path d="M16 15C16 12.7698 15.5027 10.5676 14.5443 8.55387C13.5859 6.5401 12.1905 4.76538 10.4597 3.35892L1 15H16Z" stroke="#A3A3A3" stroke-width="2" mask="url(#path-2-inside-2_189_120)"/>
<mask id="path-3-inside-3_189_120" fill="white">
<path d="M16 15C16 11.8308 14.9962 8.74298 13.1326 6.17958L1 15H16Z"/>
</mask>
<path d="M16 15C16 11.8308 14.9962 8.74298 13.1326 6.17958L1 15H16Z" stroke="#A3A3A3" stroke-width="2" mask="url(#path-3-inside-3_189_120)"/>
</svg>
