<svg width="18" height="16" viewBox="0 0 18 16" fill="none" xmlns="http://www.w3.org/2000/svg">
<mask id="path-1-inside-1_189_121" fill="white">
<path d="M16 15C16 12.1204 15.1711 9.3017 13.6124 6.88047C12.0537 4.45924 9.831 2.53784 7.20976 1.34574L1 15H16Z"/>
</mask>
<path d="M16 15C16 12.1204 15.1711 9.3017 13.6124 6.88047C12.0537 4.45924 9.831 2.53784 7.20976 1.34574L1 15H16Z" stroke="#A3A3A3" stroke-width="2" mask="url(#path-1-inside-1_189_121)"/>
<mask id="path-2-inside-2_189_121" fill="white">
<path d="M9 15C9 13.4697 8.56111 11.9716 7.73538 10.6832C6.90964 9.39484 5.73172 8.37033 4.34132 7.73119L1 15H9Z"/>
</mask>
<path d="M9 15C9 13.4697 8.56111 11.9716 7.73538 10.6832C6.90964 9.39484 5.73172 8.37033 4.34132 7.73119L1 15H9Z" stroke="#A3A3A3" stroke-width="2" mask="url(#path-2-inside-2_189_121)"/>
<mask id="path-3-inside-3_189_121" fill="white">
<path d="M12.5 15C12.5 12.7906 11.8636 10.628 10.6668 8.77085C9.4701 6.91367 7.76372 5.44053 5.75178 4.52763L1 15H12.5Z"/>
</mask>
<path d="M12.5 15C12.5 12.7906 11.8636 10.628 10.6668 8.77085C9.4701 6.91367 7.76372 5.44053 5.75178 4.52763L1 15H12.5Z" stroke="#A3A3A3" stroke-width="2" mask="url(#path-3-inside-3_189_121)"/>
</svg>
