<svg width="8" height="15" viewBox="0 0 8 15" fill="none" xmlns="http://www.w3.org/2000/svg">
<path d="M2.69489 10.7168V8.78898H0.777774V7.54661H2.69489V5.61878H4.02295V7.54661H5.94007V8.78898H4.02295V10.7168H2.69489Z" fill="#466E8F"/>
<path d="M2.69489 10.7168H1.69489V11.7168H2.69489V10.7168ZM2.69489 8.78898H3.69489V7.78898H2.69489V8.78898ZM0.777774 8.78898H-0.222226V9.78898H0.777774V8.78898ZM0.777774 7.54661V6.54661H-0.222226V7.54661H0.777774ZM2.69489 7.54661V8.54661H3.69489V7.54661H2.69489ZM2.69489 5.61878V4.61878H1.69489V5.61878H2.69489ZM4.02295 5.61878H5.02295V4.61878H4.02295V5.61878ZM4.02295 7.54661H3.02295V8.54661H4.02295V7.54661ZM5.94007 7.54661H6.94007V6.54661H5.94007V7.54661ZM5.94007 8.78898V9.78898H6.94007V8.78898H5.94007ZM4.02295 8.78898V7.78898H3.02295V8.78898H4.02295ZM4.02295 10.7168V11.7168H5.02295V10.7168H4.02295ZM3.69489 10.7168V8.78898H1.69489V10.7168H3.69489ZM2.69489 7.78898H0.777774V9.78898H2.69489V7.78898ZM1.77777 8.78898V7.54661H-0.222226V8.78898H1.77777ZM0.777774 8.54661H2.69489V6.54661H0.777774V8.54661ZM3.69489 7.54661V5.61878H1.69489V7.54661H3.69489ZM2.69489 6.61878H4.02295V4.61878H2.69489V6.61878ZM3.02295 5.61878V7.54661H5.02295V5.61878H3.02295ZM4.02295 8.54661H5.94007V6.54661H4.02295V8.54661ZM4.94007 7.54661V8.78898H6.94007V7.54661H4.94007ZM5.94007 7.78898H4.02295V9.78898H5.94007V7.78898ZM3.02295 8.78898V10.7168H5.02295V8.78898H3.02295ZM4.02295 9.71681H2.69489V11.7168H4.02295V9.71681Z" fill="white"/>
</svg>
