<svg width="11" height="10" viewBox="0 0 11 10" fill="none" xmlns="http://www.w3.org/2000/svg">
<path d="M3.9897 1.91912C3.9897 1.91912 4.59297 1.9187 5.46474 1.9187L6.77344 1.9188M3.9897 1.91912L8.51016 2.72618C8.44962 2.49493 8.31403 2.29025 8.12461 2.14416C7.93519 1.99807 7.70262 1.91882 7.4633 1.9188H6.77344M3.9897 1.91912L3.98993 1.41912L3.9898 1.41912M3.9897 1.91912L0.830714 8.62004C0.682361 8.4291 0.580024 8.20653 0.531701 7.9696C0.483333 7.73244 0.490395 7.48734 0.552326 7.25337C0.552414 7.25304 0.552502 7.25271 0.55259 7.25238L1.76907 2.59971L1.76912 2.59954C1.85769 2.26123 2.05601 1.9619 2.33292 1.74831C2.60981 1.53472 2.94969 1.41888 3.29939 1.4188L3.29973 1.4188L3.98947 1.41912L3.9898 1.41912M3.9897 1.91912L3.2995 1.9188M3.9897 1.91912L3.2995 1.9188M6.77344 1.9188V1.4188M6.77344 1.9188L6.77355 1.4188L7.4633 1.4188H7.46334C7.81308 1.41883 8.15302 1.53464 8.42996 1.74823C8.70692 1.96183 8.90527 2.26119 8.99386 2.59954L8.9939 2.59971L10.2104 7.25241C10.2105 7.25276 10.2106 7.2531 10.2107 7.25345C10.2727 7.48773 10.2794 7.73281 10.2311 7.96959C10.1827 8.20676 10.0802 8.42954 9.93165 8.62061C9.63034 9.01016 9.17227 9.23425 8.68026 9.23425H2.08376H2.08288V8.73425C1.91735 8.7349 1.7539 8.69732 1.6053 8.62445C1.4567 8.55158 1.32698 8.4454 1.22626 8.31419L6.77344 1.4188M6.77344 1.4188L6.77324 1.4188L6.77228 1.4188L6.76843 1.4188L6.75307 1.4188L6.69164 1.41879L6.44606 1.41875L5.46474 1.4187L4.4001 1.41891L4.0973 1.41905L4.01701 1.4191L3.99636 1.41911L3.99112 1.41911L3.9898 1.41912M6.77344 1.4188L3.9898 1.41912M3.2995 1.9188L3.2995 1.91863L3.2995 1.9188ZM3.2995 1.9188C3.06021 1.91886 2.82769 1.99813 2.6383 2.14421C2.44892 2.2903 2.31335 2.49496 2.25281 2.72618L3.2995 1.9188ZM7.27034 3.24995L8.35637 7.4031H2.40711L3.49314 3.24995H7.27034ZM7.22147 3.06308C7.22144 3.06298 7.22142 3.06288 7.22139 3.06278L7.2214 3.06279L7.22147 3.06308Z" fill="#466E8F" stroke="white"/>
<path d="M4.80116 7.28339V5.88133H3.40689V4.97779H4.80116V3.57573H5.76702V4.97779H7.16129V5.88133H5.76702V7.28339H4.80116Z" fill="#466E8F"/>
<path d="M4.80116 7.28339H4.30116V7.78339H4.80116V7.28339ZM4.80116 5.88133H5.30116V5.38133H4.80116V5.88133ZM3.40689 5.88133H2.90689V6.38133H3.40689V5.88133ZM3.40689 4.97779V4.47779H2.90689V4.97779H3.40689ZM4.80116 4.97779V5.47779H5.30116V4.97779H4.80116ZM4.80116 3.57573V3.07573H4.30116V3.57573H4.80116ZM5.76702 3.57573H6.26702V3.07573H5.76702V3.57573ZM5.76702 4.97779H5.26702V5.47779H5.76702V4.97779ZM7.16129 4.97779H7.66129V4.47779H7.16129V4.97779ZM7.16129 5.88133V6.38133H7.66129V5.88133H7.16129ZM5.76702 5.88133V5.38133H5.26702V5.88133H5.76702ZM5.76702 7.28339V7.78339H6.26702V7.28339H5.76702ZM5.30116 7.28339V5.88133H4.30116V7.28339H5.30116ZM4.80116 5.38133H3.40689V6.38133H4.80116V5.38133ZM3.90689 5.88133V4.97779H2.90689V5.88133H3.90689ZM3.40689 5.47779H4.80116V4.47779H3.40689V5.47779ZM5.30116 4.97779V3.57573H4.30116V4.97779H5.30116ZM4.80116 4.07573H5.76702V3.07573H4.80116V4.07573ZM5.26702 3.57573V4.97779H6.26702V3.57573H5.26702ZM5.76702 5.47779H7.16129V4.47779H5.76702V5.47779ZM6.66129 4.97779V5.88133H7.66129V4.97779H6.66129ZM7.16129 5.38133H5.76702V6.38133H7.16129V5.38133ZM5.26702 5.88133V7.28339H6.26702V5.88133H5.26702ZM5.76702 6.78339H4.80116V7.78339H5.76702V6.78339Z" fill="white"/>
</svg>
