<svg width="9" height="9" viewBox="0 0 9 9" fill="none" xmlns="http://www.w3.org/2000/svg">
<path d="M7.69383 4L8.29383 4L8.29383 3.4L7.69383 3.4L7.69383 4ZM-1.75561e-07 4L6 7.4641L6 0.535898L-1.75561e-07 4ZM7.69383 8.01636L7.69194 8.61635L8.29383 8.61825L8.29383 8.01636L7.69383 8.01636ZM7.69383 3.4L5.4 3.4L5.4 4.6L7.69383 4.6L7.69383 3.4ZM2.49811 8.6L7.69194 8.61635L7.69572 7.41636L2.50189 7.4L2.49811 8.6ZM8.29383 8.01636L8.29383 4L7.09383 4L7.09383 8.01636L8.29383 8.01636Z" fill="white"/>
<path d="M7.69385 4.00005L8.09548 4.00005L8.09548 3.59841L7.69385 3.59841L7.69385 4.00005ZM1 4.00005L5.01631 6.31886L5.01631 1.68123L1 4.00005ZM7.69385 8.01636L7.69385 8.41799L8.09548 8.41799L8.09548 8.01636L7.69385 8.01636ZM7.69385 3.59841L4.61468 3.59841L4.61468 4.40168L7.69385 4.40168L7.69385 3.59841ZM3.00816 8.41799L7.69385 8.41799L7.69385 7.61473L3.00816 7.61473L3.00816 8.41799ZM8.09548 8.01636L8.09548 4.00005L7.29222 4.00005L7.29222 8.01636L8.09548 8.01636Z" fill="#57B28F"/>
</svg>
