<svg width="11" height="13" viewBox="0 0 11 13" fill="none" xmlns="http://www.w3.org/2000/svg">
<path d="M3.85545 7.17437V6.08729H6.8543V7.17437H3.85545Z" fill="#CD3033"/>
<path d="M3.85545 7.17437H2.85545V8.17437H3.85545V7.17437ZM3.85545 6.08729V5.08729H2.85545V6.08729H3.85545ZM6.8543 6.08729H7.8543V5.08729H6.8543V6.08729ZM6.8543 7.17437V8.17437H7.8543V7.17437H6.8543ZM4.85545 7.17437V6.08729H2.85545V7.17437H4.85545ZM3.85545 7.08729H6.8543V5.08729H3.85545V7.08729ZM5.8543 6.08729V7.17437H7.8543V6.08729H5.8543ZM6.8543 6.17437H3.85545V8.17437H6.8543V6.17437Z" fill="white"/>
<path d="M4.19441 3.60198C4.19441 3.60198 4.79768 3.60156 5.66945 3.60156L6.97816 3.60166M4.19441 3.60198L8.71488 4.40904C8.65433 4.17779 8.51874 3.97311 8.32932 3.82702C8.1399 3.68093 7.90734 3.60168 7.66802 3.60166H6.97816M4.19441 3.60198L4.19464 3.10198L4.19451 3.10198M4.19441 3.60198L1.03543 10.3029C0.887073 10.112 0.784736 9.88939 0.736413 9.65246C0.688045 9.4153 0.695107 9.1702 0.757038 8.93623C0.757126 8.9359 0.757214 8.93557 0.757302 8.93524L1.97378 4.28257L1.97383 4.2824C2.06241 3.94409 2.26073 3.64476 2.53763 3.43117C2.81452 3.21758 3.1544 3.10174 3.5041 3.10166L3.50444 3.10166L4.19418 3.10198L4.19451 3.10198M4.19441 3.60198L3.50422 3.60166M4.19441 3.60198L3.50422 3.60166M6.97816 3.60166V3.10166M6.97816 3.60166L6.97827 3.10166L7.66802 3.10166H7.66805C8.01779 3.10169 8.35773 3.2175 8.63467 3.43109C8.91163 3.64469 9.10998 3.94405 9.19857 4.2824L9.19861 4.28257L10.4151 8.93527C10.4152 8.93562 10.4153 8.93596 10.4154 8.93631C10.4774 9.17059 10.4841 9.41567 10.4358 9.65245C10.3874 9.88962 10.2849 10.1124 10.1364 10.3035C9.83505 10.693 9.37698 10.9171 8.88497 10.9171H2.28847H2.2876V10.4171C2.12206 10.4178 1.95861 10.3802 1.81001 10.3073C1.66142 10.2344 1.53169 10.1283 1.43097 9.99705L6.97816 3.10166M6.97816 3.10166L6.97795 3.10166L6.97699 3.10166L6.97314 3.10166L6.95778 3.10166L6.89635 3.10165L6.65078 3.10161L5.66945 3.10156L4.60482 3.10177L4.30202 3.10191L4.22172 3.10196L4.20107 3.10197L4.19583 3.10198L4.19451 3.10198M6.97816 3.10166L4.19451 3.10198M3.50422 3.60166L3.50422 3.60149L3.50422 3.60166ZM3.50422 3.60166C3.26493 3.60172 3.0324 3.68099 2.84302 3.82707C2.65363 3.97316 2.51806 4.17782 2.45752 4.40904L3.50422 3.60166ZM7.47505 4.93282L8.56108 9.08596H2.61182L3.69785 4.93282H7.47505ZM7.42618 4.74594C7.42616 4.74584 7.42613 4.74574 7.4261 4.74564L7.42611 4.74565L7.42618 4.74594Z" fill="#CD3033" stroke="white"/>
</svg>
